<svg width="52" height="64" viewBox="0 0 52 64" fill="none" xmlns="http://www.w3.org/2000/svg">
<path d="M39.6585 64H4.79675C2.49775 64 0.634125 62.1363 0.634125 59.8373V29.1382C0.634125 26.8392 2.49775 24.9756 4.79675 24.9756H35.4959C37.7949 24.9756 39.6585 26.8392 39.6585 29.1382V64Z" fill="#003130"/>
<g opacity="0.2">
<path opacity="0.4" d="M35.4959 24.9756H30.2926C32.5916 24.9756 34.4552 26.8392 34.4552 29.1382V35.2252C34.4552 36.4153 33.7792 37.5033 32.7101 38.0261C27.4321 40.6071 23.7886 46.0323 23.7886 52.2926C23.7886 56.923 25.7822 61.0962 28.9559 64H39.6585V29.1382C39.6585 26.8392 37.7949 24.9756 35.4959 24.9756Z" fill="#E8EDFB"/>
</g>
<path d="M6.50826 13.6381V24.9756H11.9716V13.6381C11.9716 9.12338 15.6315 5.4635 20.1463 5.4635C24.661 5.4635 28.3209 9.12338 28.3209 13.6381V24.9756H33.7843V13.6381C33.7844 6.106 27.6785 0 20.1464 0C12.6143 0 6.50826 6.106 6.50826 13.6381V13.6381Z" fill="#003130"/>
<g opacity="0.3">
<path d="M6.50826 20.813H11.9716V24.9756H6.50826V20.813Z" fill="#A5A5A5"/>
</g>
<g opacity="0.3">
<path d="M28.321 20.813H33.7844V24.9756H28.321V20.813Z" fill="#A5A5A5"/>
</g>
<path d="M39.6585 64C46.1243 64 51.3659 58.7584 51.3659 52.2926C51.3659 45.8268 46.1243 40.5852 39.6585 40.5852C33.1927 40.5852 27.9511 45.8268 27.9511 52.2926C27.9511 58.7584 33.1927 64 39.6585 64Z" fill="#FF7272"/>
<path opacity="0.2" d="M45.776 42.3096C46.8692 44.0899 47.5001 46.1847 47.5001 48.4271C47.5001 54.8928 42.2586 60.1344 35.7927 60.1344C33.5504 60.1344 31.4556 59.5036 29.6752 58.4103C31.7345 61.7634 35.4351 64.0001 39.6585 64.0001C46.1242 64.0001 51.3659 58.7586 51.3659 52.2927C51.3659 48.0693 49.1291 44.3687 45.776 42.3096Z" fill="#FF3636"/>
<path d="M24.309 40.0015C24.309 37.7025 22.4454 35.8389 20.1464 35.8389C17.8474 35.8389 15.9837 37.7025 15.9837 40.0015C15.9837 41.542 16.8213 42.886 18.065 43.6059V51.0555C18.065 52.205 18.9969 53.1367 20.1462 53.1367C21.2957 53.1367 22.2275 52.2049 22.2275 51.0555V43.6059C23.4715 42.886 24.309 41.542 24.309 40.0015Z" fill="white"/>
<path d="M39.6586 56.9156C39.1408 56.9156 38.7211 56.4958 38.7211 55.9781V52.9418C38.7211 52.424 39.1408 52.0043 39.6586 52.0043C40.547 52.0043 41.3737 51.6489 41.9864 51.0037C42.5986 50.3588 42.9105 49.513 42.8641 48.6222C42.7776 46.9527 41.3988 45.6186 39.7253 45.5848C38.1033 45.5538 36.7035 46.7388 36.4794 48.3453C36.4589 48.4923 36.4485 48.6434 36.4485 48.7942C36.4485 49.3119 36.0289 49.7317 35.511 49.7317C34.9931 49.7317 34.5735 49.3119 34.5735 48.7942C34.5735 48.557 34.59 48.3188 34.6225 48.0862C34.978 45.5394 37.1879 43.6609 39.7631 43.7102C42.4148 43.7635 44.5994 45.8786 44.7368 48.5251C44.8099 49.9344 44.316 51.2732 43.3461 52.2947C42.5954 53.0854 41.6415 53.6012 40.5961 53.7942V55.9782C40.5961 56.4958 40.1764 56.9156 39.6586 56.9156Z" fill="white"/>
<path d="M39.6588 60.8762C40.1765 60.8762 40.5963 60.4565 40.5963 59.9387C40.5963 59.421 40.1765 59.0012 39.6588 59.0012C39.141 59.0012 38.7213 59.421 38.7213 59.9387C38.7213 60.4565 39.141 60.8762 39.6588 60.8762Z" fill="white"/>
</svg>
